<svg xmlns="http://www.w3.org/2000/svg" version="1.1" xmlns:xlink="http://www.w3.org/1999/xlink" xmlns:svgjs="http://svgjs.dev/svgjs" width="1440" height="560" preserveAspectRatio="none" viewBox="0 0 1440 560"><g mask="url(&quot;#SvgjsMask1021&quot;)" fill="none"><path d="M-49.24 338.54L-49.24 338.54" stroke="rgba(255, 0, 65, 1)" stroke-width="1.5"></path><path d="M-49.24 338.54L74.12 350.02" stroke="rgba(255, 0, 65, 1)" stroke-width="1.5"></path><path d="M-49.24 338.54L-65.6 516.06" stroke="rgba(255, 0, 65, 1)" stroke-width="1.5"></path><path d="M-49.24 338.54L45.86 540.26" stroke="rgba(255, 0, 65, 1)" stroke-width="1.5"></path><path d="M-49.24 338.54L197.3 361.78" stroke="rgba(255, 0, 65, 1)" stroke-width="1.5"></path><path d="M-65.6 516.06L-65.6 516.06" stroke="rgba(255, 0, 65, 1)" stroke-width="1.5"></path><path d="M-65.6 516.06L45.86 540.26" stroke="rgba(255, 0, 65, 1)" stroke-width="1.5"></path><path d="M-65.6 516.06L-99.54 668.45" stroke="rgba(255, 0, 65, 1)" stroke-width="1.5"></path><path d="M-99.54 668.45L-99.54 668.45" stroke="rgba(255, 0, 65, 1)" stroke-width="1.5"></path><path d="M-99.54 668.45L45.86 540.26" stroke="rgba(255, 0, 65, 1)" stroke-width="1.5"></path><path d="M-99.54 668.45L97.1 711.64" stroke="rgba(255, 0, 65, 1)" stroke-width="1.5"></path><path d="M-99.54 668.45L-49.24 338.54" stroke="rgba(255, 0, 65, 1)" stroke-width="1.5"></path><path d="M-99.54 668.45L243.46 701.9" stroke="rgba(255, 0, 65, 1)" stroke-width="1.5"></path><path d="M-99.54 668.45L74.12 350.02" stroke="rgba(255, 0, 65, 1)" stroke-width="1.5"></path><path d="M74.12 350.02L74.12 350.02" stroke="rgba(255, 0, 65, 1)" stroke-width="1.5"></path><path d="M74.12 350.02L197.3 361.78" stroke="rgba(255, 0, 65, 1)" stroke-width="1.5"></path><path d="M74.12 350.02L45.86 540.26" stroke="rgba(255, 0, 65, 1)" stroke-width="1.5"></path><path d="M74.12 350.02L-65.6 516.06" stroke="rgba(255, 0, 65, 1)" stroke-width="1.5"></path><path d="M45.86 540.26L45.86 540.26" stroke="rgba(255, 0, 65, 1)" stroke-width="1.5"></path><path d="M45.86 540.26L97.1 711.64" stroke="rgba(255, 0, 65, 1)" stroke-width="1.5"></path><path d="M97.1 711.64L97.1 711.64" stroke="rgba(255, 0, 65, 1)" stroke-width="1.5"></path><path d="M97.1 711.64L243.46 701.9" stroke="rgba(255, 0, 65, 1)" stroke-width="1.5"></path><path d="M97.1 711.64L-65.6 516.06" stroke="rgba(255, 0, 65, 1)" stroke-width="1.5"></path><path d="M197.3 361.78L197.3 361.78" stroke="rgba(255, 0, 65, 1)" stroke-width="1.5"></path><path d="M197.3 361.78L344.51 394.84" stroke="rgba(255, 0, 65, 1)" stroke-width="1.5"></path><path d="M197.3 361.78L45.86 540.26" stroke="rgba(255, 0, 65, 1)" stroke-width="1.5"></path><path d="M243.46 701.9L243.46 701.9" stroke="rgba(255, 0, 65, 1)" stroke-width="1.5"></path><path d="M243.46 701.9L366.14 699.85" stroke="rgba(255, 0, 65, 1)" stroke-width="1.5"></path><path d="M344.51 394.84L344.51 394.84" stroke="rgba(255, 0, 65, 1)" stroke-width="1.5"></path><path d="M344.51 394.84L393.66 537.59" stroke="rgba(255, 0, 65, 1)" stroke-width="1.5"></path><path d="M344.51 394.84L523.4 359.04" stroke="rgba(255, 0, 65, 1)" stroke-width="1.5"></path><path d="M393.66 537.59L393.66 537.59" stroke="rgba(255, 0, 65, 1)" stroke-width="1.5"></path><path d="M393.66 537.59L544.91 498.4" stroke="rgba(255, 0, 65, 1)" stroke-width="1.5"></path><path d="M393.66 537.59L366.14 699.85" stroke="rgba(255, 0, 65, 1)" stroke-width="1.5"></path><path d="M393.66 537.59L529.02 689.4" stroke="rgba(255, 0, 65, 1)" stroke-width="1.5"></path><path d="M366.14 699.85L366.14 699.85" stroke="rgba(255, 0, 65, 1)" stroke-width="1.5"></path><path d="M366.14 699.85L529.02 689.4" stroke="rgba(255, 0, 65, 1)" stroke-width="1.5"></path><path d="M366.14 699.85L97.1 711.64" stroke="rgba(255, 0, 65, 1)" stroke-width="1.5"></path><path d="M366.14 699.85L544.91 498.4" stroke="rgba(255, 0, 65, 1)" stroke-width="1.5"></path><path d="M523.4 359.04L523.4 359.04" stroke="rgba(255, 0, 65, 1)" stroke-width="1.5"></path><path d="M523.4 359.04L661.55 353.22" stroke="rgba(255, 0, 65, 1)" stroke-width="1.5"></path><path d="M523.4 359.04L544.91 498.4" stroke="rgba(255, 0, 65, 1)" stroke-width="1.5"></path><path d="M544.91 498.4L544.91 498.4" stroke="rgba(255, 0, 65, 1)" stroke-width="1.5"></path><path d="M529.02 689.4L529.02 689.4" stroke="rgba(255, 0, 65, 1)" stroke-width="1.5"></path><path d="M710.17 223.25L710.17 223.25" stroke="rgba(255, 0, 65, 1)" stroke-width="1.5"></path><path d="M710.17 223.25L661.55 353.22" stroke="rgba(255, 0, 65, 1)" stroke-width="1.5"></path><path d="M710.17 223.25L850.08 104.46" stroke="rgba(255, 0, 65, 1)" stroke-width="1.5"></path><path d="M710.17 223.25L853.12 360.96" stroke="rgba(255, 0, 65, 1)" stroke-width="1.5"></path><path d="M710.17 223.25L523.4 359.04" stroke="rgba(255, 0, 65, 1)" stroke-width="1.5"></path><path d="M661.55 353.22L661.55 353.22" stroke="rgba(255, 0, 65, 1)" stroke-width="1.5"></path><path d="M661.55 353.22L544.91 498.4" stroke="rgba(255, 0, 65, 1)" stroke-width="1.5"></path><path d="M661.55 353.22L853.12 360.96" stroke="rgba(255, 0, 65, 1)" stroke-width="1.5"></path><path d="M661.55 353.22L806.19 494.45" stroke="rgba(255, 0, 65, 1)" stroke-width="1.5"></path><path d="M678.61 557.61L678.61 557.61" stroke="rgba(255, 0, 65, 1)" stroke-width="1.5"></path><path d="M678.61 557.61L806.19 494.45" stroke="rgba(255, 0, 65, 1)" stroke-width="1.5"></path><path d="M678.61 557.61L544.91 498.4" stroke="rgba(255, 0, 65, 1)" stroke-width="1.5"></path><path d="M705.59 707.53L705.59 707.53" stroke="rgba(255, 0, 65, 1)" stroke-width="1.5"></path><path d="M705.59 707.53L796.25 648.28" stroke="rgba(255, 0, 65, 1)" stroke-width="1.5"></path><path d="M705.59 707.53L678.61 557.61" stroke="rgba(255, 0, 65, 1)" stroke-width="1.5"></path><path d="M705.59 707.53L529.02 689.4" stroke="rgba(255, 0, 65, 1)" stroke-width="1.5"></path><path d="M705.59 707.53L806.19 494.45" stroke="rgba(255, 0, 65, 1)" stroke-width="1.5"></path><path d="M705.59 707.53L544.91 498.4" stroke="rgba(255, 0, 65, 1)" stroke-width="1.5"></path><path d="M850.08 104.46L850.08 104.46" stroke="rgba(255, 0, 65, 1)" stroke-width="1.5"></path><path d="M850.08 104.46L947.45 50.87" stroke="rgba(255, 0, 65, 1)" stroke-width="1.5"></path><path d="M850.08 104.46L997.97 261.54" stroke="rgba(255, 0, 65, 1)" stroke-width="1.5"></path><path d="M850.08 104.46L956.25 -108.13" stroke="rgba(255, 0, 65, 1)" stroke-width="1.5"></path><path d="M850.08 104.46L853.12 360.96" stroke="rgba(255, 0, 65, 1)" stroke-width="1.5"></path><path d="M850.08 104.46L940.87 344.64" stroke="rgba(255, 0, 65, 1)" stroke-width="1.5"></path><path d="M853.12 360.96L853.12 360.96" stroke="rgba(255, 0, 65, 1)" stroke-width="1.5"></path><path d="M853.12 360.96L940.87 344.64" stroke="rgba(255, 0, 65, 1)" stroke-width="1.5"></path><path d="M853.12 360.96L806.19 494.45" stroke="rgba(255, 0, 65, 1)" stroke-width="1.5"></path><path d="M853.12 360.96L997.97 261.54" stroke="rgba(255, 0, 65, 1)" stroke-width="1.5"></path><path d="M806.19 494.45L806.19 494.45" stroke="rgba(255, 0, 65, 1)" stroke-width="1.5"></path><path d="M806.19 494.45L796.25 648.28" stroke="rgba(255, 0, 65, 1)" stroke-width="1.5"></path><path d="M796.25 648.28L796.25 648.28" stroke="rgba(255, 0, 65, 1)" stroke-width="1.5"></path><path d="M796.25 648.28L678.61 557.61" stroke="rgba(255, 0, 65, 1)" stroke-width="1.5"></path><path d="M796.25 648.28L968.99 640.93" stroke="rgba(255, 0, 65, 1)" stroke-width="1.5"></path><path d="M796.25 648.28L529.02 689.4" stroke="rgba(255, 0, 65, 1)" stroke-width="1.5"></path><path d="M796.25 648.28L544.91 498.4" stroke="rgba(255, 0, 65, 1)" stroke-width="1.5"></path><path d="M956.25 -108.13L956.25 -108.13" stroke="rgba(255, 0, 65, 1)" stroke-width="1.5"></path><path d="M956.25 -108.13L1091.7 -56.82" stroke="rgba(255, 0, 65, 1)" stroke-width="1.5"></path><path d="M956.25 -108.13L947.45 50.87" stroke="rgba(255, 0, 65, 1)" stroke-width="1.5"></path><path d="M956.25 -108.13L1156.6 38.35" stroke="rgba(255, 0, 65, 1)" stroke-width="1.5"></path><path d="M947.45 50.87L947.45 50.87" stroke="rgba(255, 0, 65, 1)" stroke-width="1.5"></path><path d="M997.97 261.54L997.97 261.54" stroke="rgba(255, 0, 65, 1)" stroke-width="1.5"></path><path d="M997.97 261.54L940.87 344.64" stroke="rgba(255, 0, 65, 1)" stroke-width="1.5"></path><path d="M997.97 261.54L1146.27 350.72" stroke="rgba(255, 0, 65, 1)" stroke-width="1.5"></path><path d="M997.97 261.54L947.45 50.87" stroke="rgba(255, 0, 65, 1)" stroke-width="1.5"></path><path d="M940.87 344.64L940.87 344.64" stroke="rgba(255, 0, 65, 1)" stroke-width="1.5"></path><path d="M940.87 344.64L806.19 494.45" stroke="rgba(255, 0, 65, 1)" stroke-width="1.5"></path><path d="M940.87 344.64L1146.27 350.72" stroke="rgba(255, 0, 65, 1)" stroke-width="1.5"></path><path d="M940.87 344.64L1135.89 490.4" stroke="rgba(255, 0, 65, 1)" stroke-width="1.5"></path><path d="M968.99 640.93L968.99 640.93" stroke="rgba(255, 0, 65, 1)" stroke-width="1.5"></path><path d="M968.99 640.93L1149.68 687.98" stroke="rgba(255, 0, 65, 1)" stroke-width="1.5"></path><path d="M968.99 640.93L806.19 494.45" stroke="rgba(255, 0, 65, 1)" stroke-width="1.5"></path><path d="M1091.7 -56.82L1091.7 -56.82" stroke="rgba(255, 0, 65, 1)" stroke-width="1.5"></path><path d="M1091.7 -56.82L1156.6 38.35" stroke="rgba(255, 0, 65, 1)" stroke-width="1.5"></path><path d="M1091.7 -56.82L1239.41 -83.06" stroke="rgba(255, 0, 65, 1)" stroke-width="1.5"></path><path d="M1156.6 38.35L1156.6 38.35" stroke="rgba(255, 0, 65, 1)" stroke-width="1.5"></path><path d="M1156.6 38.35L1239.41 -83.06" stroke="rgba(255, 0, 65, 1)" stroke-width="1.5"></path><path d="M1156.6 38.35L947.45 50.87" stroke="rgba(255, 0, 65, 1)" stroke-width="1.5"></path><path d="M1156.6 38.35L1258.13 235.14" stroke="rgba(255, 0, 65, 1)" stroke-width="1.5"></path><path d="M1146.27 350.72L1146.27 350.72" stroke="rgba(255, 0, 65, 1)" stroke-width="1.5"></path><path d="M1146.27 350.72L1135.89 490.4" stroke="rgba(255, 0, 65, 1)" stroke-width="1.5"></path><path d="M1146.27 350.72L1258.13 235.14" stroke="rgba(255, 0, 65, 1)" stroke-width="1.5"></path><path d="M1146.27 350.72L1401.23 211.71" stroke="rgba(255, 0, 65, 1)" stroke-width="1.5"></path><path d="M1135.89 490.4L1135.89 490.4" stroke="rgba(255, 0, 65, 1)" stroke-width="1.5"></path><path d="M1135.89 490.4L1149.68 687.98" stroke="rgba(255, 0, 65, 1)" stroke-width="1.5"></path><path d="M1135.89 490.4L968.99 640.93" stroke="rgba(255, 0, 65, 1)" stroke-width="1.5"></path><path d="M1135.89 490.4L1257.17 687.24" stroke="rgba(255, 0, 65, 1)" stroke-width="1.5"></path><path d="M1149.68 687.98L1149.68 687.98" stroke="rgba(255, 0, 65, 1)" stroke-width="1.5"></path><path d="M1149.68 687.98L1257.17 687.24" stroke="rgba(255, 0, 65, 1)" stroke-width="1.5"></path><path d="M1239.41 -83.06L1239.41 -83.06" stroke="rgba(255, 0, 65, 1)" stroke-width="1.5"></path><path d="M1239.41 -83.06L1413.07 -73.68" stroke="rgba(255, 0, 65, 1)" stroke-width="1.5"></path><path d="M1258.13 235.14L1258.13 235.14" stroke="rgba(255, 0, 65, 1)" stroke-width="1.5"></path><path d="M1258.13 235.14L1401.23 211.71" stroke="rgba(255, 0, 65, 1)" stroke-width="1.5"></path><path d="M1257.17 687.24L1257.17 687.24" stroke="rgba(255, 0, 65, 1)" stroke-width="1.5"></path><path d="M1257.17 687.24L1391.67 672.63" stroke="rgba(255, 0, 65, 1)" stroke-width="1.5"></path><path d="M1257.17 687.24L1404.03 551.45" stroke="rgba(255, 0, 65, 1)" stroke-width="1.5"></path><path d="M1257.17 687.24L968.99 640.93" stroke="rgba(255, 0, 65, 1)" stroke-width="1.5"></path><path d="M1257.17 687.24L1584.18 696.44" stroke="rgba(255, 0, 65, 1)" stroke-width="1.5"></path><path d="M1413.07 -73.68L1413.07 -73.68" stroke="rgba(255, 0, 65, 1)" stroke-width="1.5"></path><path d="M1413.07 -73.68L1432.01 84.14" stroke="rgba(255, 0, 65, 1)" stroke-width="1.5"></path><path d="M1413.07 -73.68L1575.96 -105.91" stroke="rgba(255, 0, 65, 1)" stroke-width="1.5"></path><path d="M1432.01 84.14L1432.01 84.14" stroke="rgba(255, 0, 65, 1)" stroke-width="1.5"></path><path d="M1432.01 84.14L1401.23 211.71" stroke="rgba(255, 0, 65, 1)" stroke-width="1.5"></path><path d="M1432.01 84.14L1562.7 63.55" stroke="rgba(255, 0, 65, 1)" stroke-width="1.5"></path><path d="M1401.23 211.71L1401.23 211.71" stroke="rgba(255, 0, 65, 1)" stroke-width="1.5"></path><path d="M1401.23 211.71L1564.03 191.71" stroke="rgba(255, 0, 65, 1)" stroke-width="1.5"></path><path d="M1401.23 211.71L1562.7 63.55" stroke="rgba(255, 0, 65, 1)" stroke-width="1.5"></path><path d="M1404.03 551.45L1404.03 551.45" stroke="rgba(255, 0, 65, 1)" stroke-width="1.5"></path><path d="M1404.03 551.45L1391.67 672.63" stroke="rgba(255, 0, 65, 1)" stroke-width="1.5"></path><path d="M1404.03 551.45L1593.31 531.48" stroke="rgba(255, 0, 65, 1)" stroke-width="1.5"></path><path d="M1391.67 672.63L1391.67 672.63" stroke="rgba(255, 0, 65, 1)" stroke-width="1.5"></path><path d="M1391.67 672.63L1584.18 696.44" stroke="rgba(255, 0, 65, 1)" stroke-width="1.5"></path><path d="M1391.67 672.63L1149.68 687.98" stroke="rgba(255, 0, 65, 1)" stroke-width="1.5"></path><path d="M1391.67 672.63L1593.31 531.48" stroke="rgba(255, 0, 65, 1)" stroke-width="1.5"></path><path d="M1391.67 672.63L1135.89 490.4" stroke="rgba(255, 0, 65, 1)" stroke-width="1.5"></path><path d="M1575.96 -105.91L1575.96 -105.91" stroke="rgba(255, 0, 65, 1)" stroke-width="1.5"></path><path d="M1575.96 -105.91L1562.7 63.55" stroke="rgba(255, 0, 65, 1)" stroke-width="1.5"></path><path d="M1575.96 -105.91L1432.01 84.14" stroke="rgba(255, 0, 65, 1)" stroke-width="1.5"></path><path d="M1575.96 -105.91L1564.03 191.71" stroke="rgba(255, 0, 65, 1)" stroke-width="1.5"></path><path d="M1575.96 -105.91L1239.41 -83.06" stroke="rgba(255, 0, 65, 1)" stroke-width="1.5"></path><path d="M1575.96 -105.91L1401.23 211.71" stroke="rgba(255, 0, 65, 1)" stroke-width="1.5"></path><path d="M1562.7 63.55L1562.7 63.55" stroke="rgba(255, 0, 65, 1)" stroke-width="1.5"></path><path d="M1562.7 63.55L1564.03 191.71" stroke="rgba(255, 0, 65, 1)" stroke-width="1.5"></path><path d="M1564.03 191.71L1564.03 191.71" stroke="rgba(255, 0, 65, 1)" stroke-width="1.5"></path><path d="M1545.15 398.49L1545.15 398.49" stroke="rgba(255, 0, 65, 1)" stroke-width="1.5"></path><path d="M1545.15 398.49L1593.31 531.48" stroke="rgba(255, 0, 65, 1)" stroke-width="1.5"></path><path d="M1545.15 398.49L1564.03 191.71" stroke="rgba(255, 0, 65, 1)" stroke-width="1.5"></path><path d="M1593.31 531.48L1593.31 531.48" stroke="rgba(255, 0, 65, 1)" stroke-width="1.5"></path><path d="M1584.18 696.44L1584.18 696.44" stroke="rgba(255, 0, 65, 1)" stroke-width="1.5"></path><path d="M1584.18 696.44L1593.31 531.48" stroke="rgba(255, 0, 65, 1)" stroke-width="1.5"></path><path d="M1584.18 696.44L1404.03 551.45" stroke="rgba(255, 0, 65, 1)" stroke-width="1.5"></path><path d="M1584.18 696.44L1545.15 398.49" stroke="rgba(255, 0, 65, 1)" stroke-width="1.5"></path><circle r="5" cx="-49.24" cy="338.54" fill="rgba(255, 0, 65, 1)"></circle><circle r="5" cx="-65.6" cy="516.06" fill="rgba(255, 0, 65, 1)"></circle><circle r="5" cx="-99.54" cy="668.45" fill="rgba(255, 0, 65, 1)"></circle><circle r="5" cx="74.12" cy="350.02" fill="rgba(255, 0, 65, 1)"></circle><circle r="5" cx="45.86" cy="540.26" fill="rgba(255, 0, 65, 1)"></circle><circle r="5" cx="97.1" cy="711.64" fill="rgba(255, 0, 65, 1)"></circle><circle r="5" cx="197.3" cy="361.78" fill="rgba(255, 0, 65, 1)"></circle><circle r="5" cx="243.46" cy="701.9" fill="rgba(255, 0, 65, 1)"></circle><circle r="5" cx="344.51" cy="394.84" fill="rgba(255, 0, 65, 1)"></circle><circle r="5" cx="393.66" cy="537.59" fill="rgba(255, 0, 65, 1)"></circle><circle r="5" cx="366.14" cy="699.85" fill="rgba(255, 0, 65, 1)"></circle><circle r="5" cx="523.4" cy="359.04" fill="rgba(255, 0, 65, 1)"></circle><circle r="5" cx="544.91" cy="498.4" fill="rgba(255, 0, 65, 1)"></circle><circle r="5" cx="529.02" cy="689.4" fill="rgba(255, 0, 65, 1)"></circle><circle r="5" cx="710.17" cy="223.25" fill="rgba(255, 0, 65, 1)"></circle><circle r="5" cx="661.55" cy="353.22" fill="rgba(255, 0, 65, 1)"></circle><circle r="5" cx="678.61" cy="557.61" fill="rgba(255, 0, 65, 1)"></circle><circle r="5" cx="705.59" cy="707.53" fill="rgba(255, 0, 65, 1)"></circle><circle r="5" cx="850.08" cy="104.46" fill="rgba(255, 0, 65, 1)"></circle><circle r="5" cx="853.12" cy="360.96" fill="rgba(255, 0, 65, 1)"></circle><circle r="5" cx="806.19" cy="494.45" fill="rgba(255, 0, 65, 1)"></circle><circle r="5" cx="796.25" cy="648.28" fill="rgba(255, 0, 65, 1)"></circle><circle r="5" cx="956.25" cy="-108.13" fill="rgba(255, 0, 65, 1)"></circle><circle r="5" cx="947.45" cy="50.87" fill="rgba(255, 0, 65, 1)"></circle><circle r="5" cx="997.97" cy="261.54" fill="rgba(255, 0, 65, 1)"></circle><circle r="5" cx="940.87" cy="344.64" fill="rgba(255, 0, 65, 1)"></circle><circle r="5" cx="968.99" cy="640.93" fill="rgba(255, 0, 65, 1)"></circle><circle r="5" cx="1091.7" cy="-56.82" fill="rgba(255, 0, 65, 1)"></circle><circle r="5" cx="1156.6" cy="38.35" fill="rgba(255, 0, 65, 1)"></circle><circle r="5" cx="1146.27" cy="350.72" fill="rgba(255, 0, 65, 1)"></circle><circle r="5" cx="1135.89" cy="490.4" fill="rgba(255, 0, 65, 1)"></circle><circle r="5" cx="1149.68" cy="687.98" fill="rgba(255, 0, 65, 1)"></circle><circle r="5" cx="1239.41" cy="-83.06" fill="rgba(255, 0, 65, 1)"></circle><circle r="5" cx="1258.13" cy="235.14" fill="rgba(255, 0, 65, 1)"></circle><circle r="5" cx="1257.17" cy="687.24" fill="rgba(255, 0, 65, 1)"></circle><circle r="5" cx="1413.07" cy="-73.68" fill="rgba(255, 0, 65, 1)"></circle><circle r="5" cx="1432.01" cy="84.14" fill="rgba(255, 0, 65, 1)"></circle><circle r="5" cx="1401.23" cy="211.71" fill="rgba(255, 0, 65, 1)"></circle><circle r="5" cx="1404.03" cy="551.45" fill="rgba(255, 0, 65, 1)"></circle><circle r="5" cx="1391.67" cy="672.63" fill="rgba(255, 0, 65, 1)"></circle><circle r="5" cx="1575.96" cy="-105.91" fill="rgba(255, 0, 65, 1)"></circle><circle r="5" cx="1562.7" cy="63.55" fill="rgba(255, 0, 65, 1)"></circle><circle r="5" cx="1564.03" cy="191.71" fill="rgba(255, 0, 65, 1)"></circle><circle r="5" cx="1545.15" cy="398.49" fill="rgba(255, 0, 65, 1)"></circle><circle r="5" cx="1593.31" cy="531.48" fill="rgba(255, 0, 65, 1)"></circle><circle r="5" cx="1584.18" cy="696.44" fill="rgba(255, 0, 65, 1)"></circle><path d="M-75.23 522.43L-75.23 522.43" stroke="hsl(198.60000000000002, 88.7%, 63%)" stroke-width="1.5"></path><path d="M-75.23 522.43L51.33 499.96" stroke="hsl(198.60000000000002, 88.7%, 63%)" stroke-width="1.5"></path><path d="M-75.23 522.43L-94.69 657.37" stroke="hsl(198.60000000000002, 88.7%, 63%)" stroke-width="1.5"></path><path d="M-75.23 522.43L44.28 658.58" stroke="hsl(198.60000000000002, 88.7%, 63%)" stroke-width="1.5"></path><path d="M-75.23 522.43L206.66 513.09" stroke="hsl(198.60000000000002, 88.7%, 63%)" stroke-width="1.5"></path><path d="M-75.23 522.43L219.37 671.45" stroke="hsl(198.60000000000002, 88.7%, 63%)" stroke-width="1.5"></path><path d="M-75.23 522.43L384.86 542.38" stroke="hsl(198.60000000000002, 88.7%, 63%)" stroke-width="1.5"></path><path d="M800 348.3L800 348.3" stroke="hsl(198.60000000000002, 88.7%, 63%)" stroke-width="1.5"></path><path d="M800 348.3L939.81 343.62" stroke="hsl(198.60000000000002, 88.7%, 63%)" stroke-width="1.5"></path><path d="M800 348.3L665.18 387.73" stroke="hsl(198.60000000000002, 88.7%, 63%)" stroke-width="1.5"></path><path d="M800 348.3L834.75 488.42" stroke="hsl(198.60000000000002, 88.7%, 63%)" stroke-width="1.5"></path><path d="M800 348.3L708.1 509.42" stroke="hsl(198.60000000000002, 88.7%, 63%)" stroke-width="1.5"></path><path d="M800 348.3L1008.43 261.17" stroke="hsl(198.60000000000002, 88.7%, 63%)" stroke-width="1.5"></path><path d="M1122.4 544.07L1122.4 544.07" stroke="hsl(198.60000000000002, 88.7%, 63%)" stroke-width="1.5"></path><path d="M1122.4 544.07L1100.87 643.27" stroke="hsl(198.60000000000002, 88.7%, 63%)" stroke-width="1.5"></path><path d="M1122.4 544.07L1238.9 542.94" stroke="hsl(198.60000000000002, 88.7%, 63%)" stroke-width="1.5"></path><path d="M1122.4 544.07L1000.38 489.29" stroke="hsl(198.60000000000002, 88.7%, 63%)" stroke-width="1.5"></path><path d="M1122.4 544.07L1142.26 392.32" stroke="hsl(198.60000000000002, 88.7%, 63%)" stroke-width="1.5"></path><path d="M1245.21 -47.23L1245.21 -47.23" stroke="hsl(198.60000000000002, 88.7%, 63%)" stroke-width="1.5"></path><path d="M1245.21 -47.23L1388.43 44.22" stroke="hsl(198.60000000000002, 88.7%, 63%)" stroke-width="1.5"></path><path d="M1238.1 240.95L1238.1 240.95" stroke="hsl(198.60000000000002, 88.7%, 63%)" stroke-width="1.5"></path><path d="M1238.1 240.95L1241.36 368.87" stroke="hsl(198.60000000000002, 88.7%, 63%)" stroke-width="1.5"></path><path d="M1238.1 240.95L1402.19 243.49" stroke="hsl(198.60000000000002, 88.7%, 63%)" stroke-width="1.5"></path><path d="M1238.1 240.95L1142.26 392.32" stroke="hsl(198.60000000000002, 88.7%, 63%)" stroke-width="1.5"></path><path d="M1238.1 240.95L1008.43 261.17" stroke="hsl(198.60000000000002, 88.7%, 63%)" stroke-width="1.5"></path><path d="M1265.81 695L1265.81 695" stroke="hsl(198.60000000000002, 88.7%, 63%)" stroke-width="1.5"></path><path d="M1265.81 695L1238.9 542.94" stroke="hsl(198.60000000000002, 88.7%, 63%)" stroke-width="1.5"></path><path d="M1265.81 695L1416.22 644.21" stroke="hsl(198.60000000000002, 88.7%, 63%)" stroke-width="1.5"></path><path d="M1265.81 695L1100.87 643.27" stroke="hsl(198.60000000000002, 88.7%, 63%)" stroke-width="1.5"></path><path d="M1402.19 243.49L1402.19 243.49" stroke="hsl(198.60000000000002, 88.7%, 63%)" stroke-width="1.5"></path><path d="M1402.19 243.49L1428.7 396.42" stroke="hsl(198.60000000000002, 88.7%, 63%)" stroke-width="1.5"></path><path d="M1402.19 243.49L1553.88 201.05" stroke="hsl(198.60000000000002, 88.7%, 63%)" stroke-width="1.5"></path><path d="M1428.7 396.42L1428.7 396.42" stroke="hsl(198.60000000000002, 88.7%, 63%)" stroke-width="1.5"></path><path d="M1428.7 396.42L1553.62 398.01" stroke="hsl(198.60000000000002, 88.7%, 63%)" stroke-width="1.5"></path><path d="M1428.7 396.42L1440.57 551.7" stroke="hsl(198.60000000000002, 88.7%, 63%)" stroke-width="1.5"></path><path d="M1428.7 396.42L1241.36 368.87" stroke="hsl(198.60000000000002, 88.7%, 63%)" stroke-width="1.5"></path><path d="M1428.7 396.42L1563.97 553.78" stroke="hsl(198.60000000000002, 88.7%, 63%)" stroke-width="1.5"></path><path d="M1428.7 396.42L1553.88 201.05" stroke="hsl(198.60000000000002, 88.7%, 63%)" stroke-width="1.5"></path><path d="M1440.57 551.7L1440.57 551.7" stroke="hsl(198.60000000000002, 88.7%, 63%)" stroke-width="1.5"></path><path d="M1440.57 551.7L1416.22 644.21" stroke="hsl(198.60000000000002, 88.7%, 63%)" stroke-width="1.5"></path><path d="M1440.57 551.7L1563.97 553.78" stroke="hsl(198.60000000000002, 88.7%, 63%)" stroke-width="1.5"></path><path d="M1440.57 551.7L1575.76 675.14" stroke="hsl(198.60000000000002, 88.7%, 63%)" stroke-width="1.5"></path><path d="M-94.69 657.37L-94.69 657.37" stroke="hsl(198.60000000000002, 88.7%, 63%)" stroke-width="1.5"></path><path d="M-94.69 657.37L44.28 658.58" stroke="hsl(198.60000000000002, 88.7%, 63%)" stroke-width="1.5"></path><path d="M-94.69 657.37L51.33 499.96" stroke="hsl(198.60000000000002, 88.7%, 63%)" stroke-width="1.5"></path><path d="M51.33 499.96L51.33 499.96" stroke="hsl(198.60000000000002, 88.7%, 63%)" stroke-width="1.5"></path><path d="M51.33 499.96L206.66 513.09" stroke="hsl(198.60000000000002, 88.7%, 63%)" stroke-width="1.5"></path><path d="M51.33 499.96L44.28 658.58" stroke="hsl(198.60000000000002, 88.7%, 63%)" stroke-width="1.5"></path><path d="M51.33 499.96L219.37 671.45" stroke="hsl(198.60000000000002, 88.7%, 63%)" stroke-width="1.5"></path><path d="M51.33 499.96L384.86 542.38" stroke="hsl(198.60000000000002, 88.7%, 63%)" stroke-width="1.5"></path><path d="M44.28 658.58L44.28 658.58" stroke="hsl(198.60000000000002, 88.7%, 63%)" stroke-width="1.5"></path><path d="M44.28 658.58L219.37 671.45" stroke="hsl(198.60000000000002, 88.7%, 63%)" stroke-width="1.5"></path><path d="M206.66 513.09L206.66 513.09" stroke="hsl(198.60000000000002, 88.7%, 63%)" stroke-width="1.5"></path><path d="M206.66 513.09L219.37 671.45" stroke="hsl(198.60000000000002, 88.7%, 63%)" stroke-width="1.5"></path><path d="M219.37 671.45L219.37 671.45" stroke="hsl(198.60000000000002, 88.7%, 63%)" stroke-width="1.5"></path><path d="M219.37 671.45L396.24 698.9" stroke="hsl(198.60000000000002, 88.7%, 63%)" stroke-width="1.5"></path><path d="M384.86 542.38L384.86 542.38" stroke="hsl(198.60000000000002, 88.7%, 63%)" stroke-width="1.5"></path><path d="M384.86 542.38L396.24 698.9" stroke="hsl(198.60000000000002, 88.7%, 63%)" stroke-width="1.5"></path><path d="M384.86 542.38L544.96 525.34" stroke="hsl(198.60000000000002, 88.7%, 63%)" stroke-width="1.5"></path><path d="M384.86 542.38L206.66 513.09" stroke="hsl(198.60000000000002, 88.7%, 63%)" stroke-width="1.5"></path><path d="M384.86 542.38L560.39 651.54" stroke="hsl(198.60000000000002, 88.7%, 63%)" stroke-width="1.5"></path><path d="M396.24 698.9L396.24 698.9" stroke="hsl(198.60000000000002, 88.7%, 63%)" stroke-width="1.5"></path><path d="M396.24 698.9L560.39 651.54" stroke="hsl(198.60000000000002, 88.7%, 63%)" stroke-width="1.5"></path><path d="M544.96 525.34L544.96 525.34" stroke="hsl(198.60000000000002, 88.7%, 63%)" stroke-width="1.5"></path><path d="M544.96 525.34L560.39 651.54" stroke="hsl(198.60000000000002, 88.7%, 63%)" stroke-width="1.5"></path><path d="M560.39 651.54L560.39 651.54" stroke="hsl(198.60000000000002, 88.7%, 63%)" stroke-width="1.5"></path><path d="M665.18 387.73L665.18 387.73" stroke="hsl(198.60000000000002, 88.7%, 63%)" stroke-width="1.5"></path><path d="M665.18 387.73L708.1 509.42" stroke="hsl(198.60000000000002, 88.7%, 63%)" stroke-width="1.5"></path><path d="M665.18 387.73L544.96 525.34" stroke="hsl(198.60000000000002, 88.7%, 63%)" stroke-width="1.5"></path><path d="M665.18 387.73L834.75 488.42" stroke="hsl(198.60000000000002, 88.7%, 63%)" stroke-width="1.5"></path><path d="M665.18 387.73L939.81 343.62" stroke="hsl(198.60000000000002, 88.7%, 63%)" stroke-width="1.5"></path><path d="M665.18 387.73L560.39 651.54" stroke="hsl(198.60000000000002, 88.7%, 63%)" stroke-width="1.5"></path><path d="M708.1 509.42L708.1 509.42" stroke="hsl(198.60000000000002, 88.7%, 63%)" stroke-width="1.5"></path><path d="M708.1 509.42L834.75 488.42" stroke="hsl(198.60000000000002, 88.7%, 63%)" stroke-width="1.5"></path><path d="M708.1 509.42L544.96 525.34" stroke="hsl(198.60000000000002, 88.7%, 63%)" stroke-width="1.5"></path><path d="M708.1 509.42L816.31 683.07" stroke="hsl(198.60000000000002, 88.7%, 63%)" stroke-width="1.5"></path><path d="M834.75 488.42L834.75 488.42" stroke="hsl(198.60000000000002, 88.7%, 63%)" stroke-width="1.5"></path><path d="M834.75 488.42L1000.38 489.29" stroke="hsl(198.60000000000002, 88.7%, 63%)" stroke-width="1.5"></path><path d="M816.31 683.07L816.31 683.07" stroke="hsl(198.60000000000002, 88.7%, 63%)" stroke-width="1.5"></path><path d="M816.31 683.07L834.75 488.42" stroke="hsl(198.60000000000002, 88.7%, 63%)" stroke-width="1.5"></path><path d="M816.31 683.07L560.39 651.54" stroke="hsl(198.60000000000002, 88.7%, 63%)" stroke-width="1.5"></path><path d="M816.31 683.07L1000.38 489.29" stroke="hsl(198.60000000000002, 88.7%, 63%)" stroke-width="1.5"></path><path d="M816.31 683.07L1100.87 643.27" stroke="hsl(198.60000000000002, 88.7%, 63%)" stroke-width="1.5"></path><path d="M1008.43 261.17L1008.43 261.17" stroke="hsl(198.60000000000002, 88.7%, 63%)" stroke-width="1.5"></path><path d="M1008.43 261.17L939.81 343.62" stroke="hsl(198.60000000000002, 88.7%, 63%)" stroke-width="1.5"></path><path d="M1008.43 261.17L1142.26 392.32" stroke="hsl(198.60000000000002, 88.7%, 63%)" stroke-width="1.5"></path><path d="M1008.43 261.17L1000.38 489.29" stroke="hsl(198.60000000000002, 88.7%, 63%)" stroke-width="1.5"></path><path d="M939.81 343.62L939.81 343.62" stroke="hsl(198.60000000000002, 88.7%, 63%)" stroke-width="1.5"></path><path d="M939.81 343.62L1000.38 489.29" stroke="hsl(198.60000000000002, 88.7%, 63%)" stroke-width="1.5"></path><path d="M939.81 343.62L834.75 488.42" stroke="hsl(198.60000000000002, 88.7%, 63%)" stroke-width="1.5"></path><path d="M1000.38 489.29L1000.38 489.29" stroke="hsl(198.60000000000002, 88.7%, 63%)" stroke-width="1.5"></path><path d="M1142.26 392.32L1142.26 392.32" stroke="hsl(198.60000000000002, 88.7%, 63%)" stroke-width="1.5"></path><path d="M1142.26 392.32L1241.36 368.87" stroke="hsl(198.60000000000002, 88.7%, 63%)" stroke-width="1.5"></path><path d="M1142.26 392.32L1000.38 489.29" stroke="hsl(198.60000000000002, 88.7%, 63%)" stroke-width="1.5"></path><path d="M1142.26 392.32L1238.9 542.94" stroke="hsl(198.60000000000002, 88.7%, 63%)" stroke-width="1.5"></path><path d="M1100.87 643.27L1100.87 643.27" stroke="hsl(198.60000000000002, 88.7%, 63%)" stroke-width="1.5"></path><path d="M1100.87 643.27L1238.9 542.94" stroke="hsl(198.60000000000002, 88.7%, 63%)" stroke-width="1.5"></path><path d="M1100.87 643.27L1000.38 489.29" stroke="hsl(198.60000000000002, 88.7%, 63%)" stroke-width="1.5"></path><path d="M1241.36 368.87L1241.36 368.87" stroke="hsl(198.60000000000002, 88.7%, 63%)" stroke-width="1.5"></path><path d="M1241.36 368.87L1238.9 542.94" stroke="hsl(198.60000000000002, 88.7%, 63%)" stroke-width="1.5"></path><path d="M1238.9 542.94L1238.9 542.94" stroke="hsl(198.60000000000002, 88.7%, 63%)" stroke-width="1.5"></path><path d="M1388.43 44.22L1388.43 44.22" stroke="hsl(198.60000000000002, 88.7%, 63%)" stroke-width="1.5"></path><path d="M1388.43 44.22L1574.95 105.7" stroke="hsl(198.60000000000002, 88.7%, 63%)" stroke-width="1.5"></path><path d="M1388.43 44.22L1402.19 243.49" stroke="hsl(198.60000000000002, 88.7%, 63%)" stroke-width="1.5"></path><path d="M1388.43 44.22L1579.96 -46.27" stroke="hsl(198.60000000000002, 88.7%, 63%)" stroke-width="1.5"></path><path d="M1388.43 44.22L1553.88 201.05" stroke="hsl(198.60000000000002, 88.7%, 63%)" stroke-width="1.5"></path><path d="M1388.43 44.22L1238.1 240.95" stroke="hsl(198.60000000000002, 88.7%, 63%)" stroke-width="1.5"></path><path d="M1416.22 644.21L1416.22 644.21" stroke="hsl(198.60000000000002, 88.7%, 63%)" stroke-width="1.5"></path><path d="M1416.22 644.21L1575.76 675.14" stroke="hsl(198.60000000000002, 88.7%, 63%)" stroke-width="1.5"></path><path d="M1416.22 644.21L1563.97 553.78" stroke="hsl(198.60000000000002, 88.7%, 63%)" stroke-width="1.5"></path><path d="M1416.22 644.21L1238.9 542.94" stroke="hsl(198.60000000000002, 88.7%, 63%)" stroke-width="1.5"></path><path d="M1416.22 644.21L1428.7 396.42" stroke="hsl(198.60000000000002, 88.7%, 63%)" stroke-width="1.5"></path><path d="M1579.96 -46.27L1579.96 -46.27" stroke="hsl(198.60000000000002, 88.7%, 63%)" stroke-width="1.5"></path><path d="M1579.96 -46.27L1574.95 105.7" stroke="hsl(198.60000000000002, 88.7%, 63%)" stroke-width="1.5"></path><path d="M1574.95 105.7L1574.95 105.7" stroke="hsl(198.60000000000002, 88.7%, 63%)" stroke-width="1.5"></path><path d="M1574.95 105.7L1553.88 201.05" stroke="hsl(198.60000000000002, 88.7%, 63%)" stroke-width="1.5"></path><path d="M1553.88 201.05L1553.88 201.05" stroke="hsl(198.60000000000002, 88.7%, 63%)" stroke-width="1.5"></path><path d="M1553.88 201.05L1553.62 398.01" stroke="hsl(198.60000000000002, 88.7%, 63%)" stroke-width="1.5"></path><path d="M1553.62 398.01L1553.62 398.01" stroke="hsl(198.60000000000002, 88.7%, 63%)" stroke-width="1.5"></path><path d="M1553.62 398.01L1563.97 553.78" stroke="hsl(198.60000000000002, 88.7%, 63%)" stroke-width="1.5"></path><path d="M1553.62 398.01L1440.57 551.7" stroke="hsl(198.60000000000002, 88.7%, 63%)" stroke-width="1.5"></path><path d="M1553.62 398.01L1402.19 243.49" stroke="hsl(198.60000000000002, 88.7%, 63%)" stroke-width="1.5"></path><path d="M1553.62 398.01L1575.76 675.14" stroke="hsl(198.60000000000002, 88.7%, 63%)" stroke-width="1.5"></path><path d="M1563.97 553.78L1563.97 553.78" stroke="hsl(198.60000000000002, 88.7%, 63%)" stroke-width="1.5"></path><path d="M1563.97 553.78L1575.76 675.14" stroke="hsl(198.60000000000002, 88.7%, 63%)" stroke-width="1.5"></path><path d="M1575.76 675.14L1575.76 675.14" stroke="hsl(198.60000000000002, 88.7%, 63%)" stroke-width="1.5"></path><path d="M1575.76 675.14L1265.81 695" stroke="hsl(198.60000000000002, 88.7%, 63%)" stroke-width="1.5"></path><circle r="25" cx="-75.23" cy="522.43" fill="url(&quot;#SvgjsRadialGradient1022&quot;)"></circle><circle r="25" cx="800" cy="348.3" fill="url(&quot;#SvgjsRadialGradient1022&quot;)"></circle><circle r="25" cx="1122.4" cy="544.07" fill="url(&quot;#SvgjsRadialGradient1022&quot;)"></circle><circle r="25" cx="1245.21" cy="-47.23" fill="url(&quot;#SvgjsRadialGradient1022&quot;)"></circle><circle r="25" cx="1238.1" cy="240.95" fill="url(&quot;#SvgjsRadialGradient1022&quot;)"></circle><circle r="25" cx="1265.81" cy="695" fill="url(&quot;#SvgjsRadialGradient1022&quot;)"></circle><circle r="25" cx="1402.19" cy="243.49" fill="url(&quot;#SvgjsRadialGradient1022&quot;)"></circle><circle r="25" cx="1428.7" cy="396.42" fill="url(&quot;#SvgjsRadialGradient1022&quot;)"></circle><circle r="25" cx="1440.57" cy="551.7" fill="url(&quot;#SvgjsRadialGradient1022&quot;)"></circle><circle r="5" cx="-94.69" cy="657.37" fill="#87d2f4"></circle><circle r="5" cx="51.33" cy="499.96" fill="#87d2f4"></circle><circle r="5" cx="44.28" cy="658.58" fill="#87d2f4"></circle><circle r="5" cx="206.66" cy="513.09" fill="#87d2f4"></circle><circle r="5" cx="219.37" cy="671.45" fill="#87d2f4"></circle><circle r="5" cx="384.86" cy="542.38" fill="#87d2f4"></circle><circle r="5" cx="396.24" cy="698.9" fill="#87d2f4"></circle><circle r="5" cx="544.96" cy="525.34" fill="#87d2f4"></circle><circle r="5" cx="560.39" cy="651.54" fill="#87d2f4"></circle><circle r="5" cx="665.18" cy="387.73" fill="#87d2f4"></circle><circle r="5" cx="708.1" cy="509.42" fill="#87d2f4"></circle><circle r="5" cx="834.75" cy="488.42" fill="#87d2f4"></circle><circle r="5" cx="816.31" cy="683.07" fill="#87d2f4"></circle><circle r="5" cx="1008.43" cy="261.17" fill="#87d2f4"></circle><circle r="5" cx="939.81" cy="343.62" fill="#87d2f4"></circle><circle r="5" cx="1000.38" cy="489.29" fill="#87d2f4"></circle><circle r="5" cx="1142.26" cy="392.32" fill="#87d2f4"></circle><circle r="5" cx="1100.87" cy="643.27" fill="#87d2f4"></circle><circle r="5" cx="1241.36" cy="368.87" fill="#87d2f4"></circle><circle r="5" cx="1238.9" cy="542.94" fill="#87d2f4"></circle><circle r="5" cx="1388.43" cy="44.22" fill="#87d2f4"></circle><circle r="5" cx="1416.22" cy="644.21" fill="#87d2f4"></circle><circle r="5" cx="1579.96" cy="-46.27" fill="#87d2f4"></circle><circle r="5" cx="1574.95" cy="105.7" fill="#87d2f4"></circle><circle r="5" cx="1553.88" cy="201.05" fill="#87d2f4"></circle><circle r="5" cx="1553.62" cy="398.01" fill="#87d2f4"></circle><circle r="5" cx="1563.97" cy="553.78" fill="#87d2f4"></circle><circle r="5" cx="1575.76" cy="675.14" fill="#87d2f4"></circle></g><defs><mask id="SvgjsMask1021"><rect width="1440" height="560" fill="#ffffff"></rect></mask><radialGradient id="SvgjsRadialGradient1022"><stop stop-color="#ffffff" offset="0.1"></stop><stop stop-color="rgba(14, 165, 233, 1)" offset="0.2"></stop><stop stop-color="rgba(14, 165, 233, 0)" offset="1"></stop></radialGradient></defs></svg>